<mxfile host="Electron" modified="2024-05-08T13:40:45.366Z" agent="Mozilla/5.0 (X11; Linux x86_64) AppleWebKit/537.36 (KHTML, like Gecko) draw.io/22.0.3 Chrome/118.0.5993.159 Electron/27.3.2 Safari/537.36" etag="LFLGz-bZC_XjrEj8AaxV" version="22.0.3" type="device">
  <diagram name="Page-1" id="f2r3Cgs7-6eoHY3Tkk6_">
    <mxGraphModel dx="573" dy="362" grid="1" gridSize="10" guides="0" tooltips="1" connect="1" arrows="1" fold="1" page="1" pageScale="1" pageWidth="850" pageHeight="1100" math="0" shadow="0">
      <root>
        <mxCell id="0" />
        <mxCell id="1" parent="0" />
        <mxCell id="Oe-OhVq1whxeQMi8T1lY-1" value="&lt;font style=&quot;font-size: 12px;&quot;&gt;# H1 {data-name=&quot;h1&quot;}&lt;br&gt;&lt;br&gt;...&lt;br&gt;&lt;/font&gt;" style="rounded=0;whiteSpace=wrap;html=1;align=left;verticalAlign=top;fontSize=10;fontFamily=mono;" parent="1" vertex="1">
          <mxGeometry x="160" y="80" width="200" height="80" as="geometry" />
        </mxCell>
        <mxCell id="Oe-OhVq1whxeQMi8T1lY-8" value="&lt;font style=&quot;font-size: 12px;&quot;&gt;# H2 {data-stack-name=&quot;h2&quot;}&lt;br&gt;&lt;br&gt;...&lt;br&gt;&lt;/font&gt;" style="rounded=0;whiteSpace=wrap;html=1;align=left;verticalAlign=top;fontSize=10;fontFamily=mono;" parent="1" vertex="1">
          <mxGeometry x="380" y="80" width="200" height="80" as="geometry" />
        </mxCell>
        <mxCell id="Oe-OhVq1whxeQMi8T1lY-10" value="&lt;font style=&quot;font-size: 12px;&quot;&gt;## H2_1&lt;br&gt;&lt;br&gt;...&lt;br&gt;&lt;/font&gt;" style="rounded=0;whiteSpace=wrap;html=1;align=left;verticalAlign=top;fontSize=10;fontFamily=mono;" parent="1" vertex="1">
          <mxGeometry x="380" y="180" width="200" height="80" as="geometry" />
        </mxCell>
        <mxCell id="Oe-OhVq1whxeQMi8T1lY-11" value="&lt;font style=&quot;font-size: 12px;&quot;&gt;...&lt;br&gt;&lt;/font&gt;" style="rounded=0;whiteSpace=wrap;html=1;align=center;verticalAlign=middle;fontSize=10;fontFamily=mono;strokeColor=none;" parent="1" vertex="1">
          <mxGeometry x="600" y="80" width="40" height="80" as="geometry" />
        </mxCell>
        <mxCell id="Oe-OhVq1whxeQMi8T1lY-12" value="&lt;font style=&quot;font-size: 12px;&quot;&gt;...&lt;br&gt;&lt;/font&gt;" style="rounded=0;whiteSpace=wrap;html=1;align=center;verticalAlign=middle;fontSize=10;fontFamily=mono;strokeColor=none;" parent="1" vertex="1">
          <mxGeometry x="100" y="80" width="40" height="80" as="geometry" />
        </mxCell>
        <mxCell id="Oe-OhVq1whxeQMi8T1lY-13" value="" style="endArrow=none;html=1;rounded=0;" parent="1" edge="1">
          <mxGeometry width="50" height="50" relative="1" as="geometry">
            <mxPoint x="100" y="80" as="sourcePoint" />
            <mxPoint x="100" y="160" as="targetPoint" />
            <Array as="points">
              <mxPoint x="140" y="80" />
              <mxPoint x="140" y="160" />
            </Array>
          </mxGeometry>
        </mxCell>
        <mxCell id="Oe-OhVq1whxeQMi8T1lY-14" value="" style="endArrow=none;html=1;rounded=0;" parent="1" edge="1">
          <mxGeometry width="50" height="50" relative="1" as="geometry">
            <mxPoint x="640" y="80" as="sourcePoint" />
            <mxPoint x="640" y="160" as="targetPoint" />
            <Array as="points">
              <mxPoint x="600" y="80" />
              <mxPoint x="600" y="160" />
            </Array>
          </mxGeometry>
        </mxCell>
        <mxCell id="M8bmoTR2KJSBMtuMRsnC-1" value="&lt;font style=&quot;font-size: 12px;&quot;&gt;...&lt;br&gt;&lt;/font&gt;" style="rounded=0;whiteSpace=wrap;html=1;align=center;verticalAlign=middle;fontSize=10;fontFamily=mono;strokeColor=none;" vertex="1" parent="1">
          <mxGeometry x="380" y="280" width="200" height="30" as="geometry" />
        </mxCell>
        <mxCell id="M8bmoTR2KJSBMtuMRsnC-2" value="" style="endArrow=none;html=1;rounded=0;" edge="1" parent="1">
          <mxGeometry width="50" height="50" relative="1" as="geometry">
            <mxPoint x="580" y="310" as="sourcePoint" />
            <mxPoint x="380" y="310" as="targetPoint" />
            <Array as="points">
              <mxPoint x="580" y="280" />
              <mxPoint x="380" y="280" />
            </Array>
          </mxGeometry>
        </mxCell>
      </root>
    </mxGraphModel>
  </diagram>
</mxfile>
